<svg width="79" height="28" viewBox="0 0 79 28" xmlns="http://www.w3.org/2000/svg"><title>Combined Shape</title><path d="M.407 15.028c.128-.786.324-2.651.588-5.594.265-2.943.451-5.848.558-8.714C5.721.373 9.138.2 11.804.2c3.31 0 5.76.77 7.347 2.31 1.14 1.106 1.709 2.596 1.709 4.47 0 2.819-.811 4.835-2.433 6.049-1.105.826-2.718 1.366-4.839 1.62-2.12.253-5.097.38-8.93.38H.409zM8.467 4.17l-.331 7.039c1.769-.02 3.008-.17 3.719-.45 1.326-.513 1.99-1.557 1.99-3.13 0-1.3-.335-2.215-1.005-2.745-.67-.53-1.4-.794-2.191-.794-.516 0-1.243.026-2.181.08zM30.378.34l1.749-.02c.027.167.04.343.04.53l-.05 1.34-.272 12.518-1.92.05-5.255.05c-.02-.193-.03-.44-.03-.74L24.98.47c1.48-.087 3.28-.13 5.397-.13zm21.487-.3l2.644-.02c0 .04-1.017 2.175-3.05 6.404-2.034 4.23-3.205 6.651-3.513 7.265l-.523 1.19c-.308.04-1.23.083-2.769.13a127.2 127.2 0 0 1-3.422.07c-.59-1.307-1.73-3.895-3.422-7.765-1.692-3.87-2.56-5.864-2.608-5.984L34.76.22l4.915-.21h2.582L45.03 7.7 47.452.11l4.412-.07zm3.89 7.88c0-2.547 1.037-4.504 3.11-5.87C60.938.683 63.811 0 67.482 0c3.672 0 6.51.633 8.513 1.9C77.998 3.166 79 4.96 79 7.28c0 2.512-1.062 4.47-3.186 5.874-2.124 1.403-5.025 2.104-8.703 2.104-3.679 0-6.491-.651-8.438-1.954-1.946-1.304-2.92-3.098-2.92-5.385zm11.628 3.279c1.18 0 2.082-.317 2.709-.95.626-.633.94-1.572.94-2.815 0-1.243-.32-2.101-.956-2.575-.636-.473-1.514-.71-2.633-.71s-2.005.309-2.658.925c-.653.617-.98 1.512-.98 2.685 0 2.293 1.193 3.44 3.578 3.44zM7.202 27.35l-4.126.11.127-3.947c.032-.954.062-1.688.09-2.204H0c.008-.161.038-.505.09-1.032.053-.527.101-.925.145-1.195 3.727-.046 6.318-.069 7.771-.069 1.454 0 2.448.006 2.983.017-.125 1.023-.268 1.783-.428 2.28H7.418l-.036 1.246c-.125 2.796-.187 4.293-.187 4.491 0 .198.002.3.006.303zm13.256-8.285l.675.012 3.655-.093-.217 4.252-.127 4.126-4.33.075c0-.673.028-1.525.084-2.556h-3.22l-.157 2.48-4.162.11c0-.661.018-1.467.055-2.417l.126-3.254c.004-.12.03-.572.079-1.359.048-.787.074-1.253.078-1.4.627-.034 2.008-.051 4.143-.051h.115l-.23 2.942h3.246l.187-2.867zm17.23 8.36h-3.841l-6.894-.046.103-2.031c.205-4.073.307-6.162.307-6.266.483-.019.798-.029.947-.029h6.104c1.355 0 2.45-.007 3.287-.023l-.248 2.175c-.973.085-2.91.127-5.814.127a8.168 8.168 0 0 0-.039.468l-.033.496a171.26 171.26 0 0 1 2.424-.029l1.327.035c0 .169-.027.461-.081.877a7.12 7.12 0 0 1-.178.963c-.064.016-.565.023-1.502.023H31.49l-.067 1.125 6.333.07c0 .727-.011 1.245-.033 1.554a18.3 18.3 0 0 0-.033.511zm16.007-.07l-3.751.07a79.376 79.376 0 0 1-.278-3.04l-.054-.912-2.497 3.779c-1.03 0-1.618-.004-1.767-.012-.804-1.523-1.401-2.7-1.791-3.53l-.44 3.686c-.407.012-.993.018-1.758.018-.766 0-1.533-.022-2.301-.064l.078-.975c.064-.635.211-3.066.44-7.293h.03c1.774 0 3.277-.019 4.512-.057l.217.444 1.942 3.41 2.376-3.895 4.421-.011c.028.407.155 2.092.38 5.054l.199 2.62.042.709zm12.551.07h-3.842l-6.893-.046.102-2.031c.205-4.073.308-6.162.308-6.266.482-.019.798-.029.947-.029h6.103c1.355 0 2.45-.007 3.287-.023l-.247 2.175c-.973.085-2.911.127-5.814.127a8.17 8.17 0 0 0-.04.468c-.013.219-.025.384-.033.496 1.158-.02 1.967-.029 2.425-.029l1.327.035c0 .169-.027.461-.082.877a7.12 7.12 0 0 1-.178.963c-.064.016-.564.023-1.501.023h-2.069l-.066 1.125 6.332.07c0 .727-.01 1.245-.033 1.554a18.3 18.3 0 0 0-.033.511zm8.69.118c-.59.06-1.27.09-2.038.09-.768 0-1.608-.067-2.52-.2a16.37 16.37 0 0 1-2.576-.58c.016-.064.211-.786.585-2.163 0-.027.016-.04.048-.04.724.173 1.279.3 1.665.38a15.97 15.97 0 0 0 3.287.324c.64 0 .959-.106.959-.318 0-.096-.032-.164-.097-.204a.933.933 0 0 0-.337-.096l-.778-.112a51.656 51.656 0 0 1-1.617-.257 10.06 10.06 0 0 1-.78-.156 75.55 75.55 0 0 1-.688-.181 3.541 3.541 0 0 1-.649-.228 27.24 27.24 0 0 1-.53-.277 1.563 1.563 0 0 1-.459-.346 3.671 3.671 0 0 1-.325-.416c-.193-.28-.29-.625-.29-1.032 0-1.062.51-1.811 1.532-2.248 1.021-.436 2.537-.655 4.547-.655.829 0 1.674.083 2.536.249.863.165 1.495.342 1.897.53a33.837 33.837 0 0 1-.597 1.974c-.478-.127-1.17-.253-2.075-.378a17.824 17.824 0 0 0-2.409-.188c-.702 0-1.052.108-1.052.323 0 .123.09.215.268.274.179.06.607.143 1.285.248.677.106 1.132.178 1.366.217 1.737.284 2.85.704 3.34 1.257.363.412.545.854.547 1.327.002.474-.095.877-.29 1.212a2.42 2.42 0 0 1-.81.83c-.347.22-.776.4-1.289.54-.512.14-1.064.24-1.655.3z" fill="#FFF" fill-rule="evenodd"/></svg>