<?xml version="1.0" standalone="no"?>
<!DOCTYPE svg PUBLIC "-//W3C//DTD SVG 20010904//EN"
 "http://www.w3.org/TR/2001/REC-SVG-20010904/DTD/svg10.dtd">
<svg version="1.0" xmlns="http://www.w3.org/2000/svg"
 width="945.000000pt" height="473.000000pt" viewBox="0 0 945.000000 473.000000"
 preserveAspectRatio="xMidYMid meet">
<metadata>
Created by potrace 1.14, written by Peter Selinger 2001-2017
</metadata>
<g transform="translate(0.000000,473.000000) scale(0.100000,-0.100000)"
fill="#000000" stroke="none">
<path d="M0 2365 l0 -2365 4725 0 4725 0 0 2365 0 2365 -4725 0 -4725 0 0
-2365z m4910 2030 c496 -75 906 -423 1054 -894 80 -253 78 -557 -4 -801 -130
-387 -437 -696 -820 -824 -143 -48 -257 -66 -415 -66 -357 0 -661 126 -915
380 -197 197 -318 427 -365 694 -20 115 -20 335 1 451 118 684 781 1164 1464
1060z m-2494 -3065 c56 -28 69 -61 69 -182 0 -53 3 -94 6 -90 3 4 16 34 29 67
32 83 68 154 97 193 20 27 31 32 64 32 48 0 103 -22 117 -46 7 -13 5 -31 -8
-65 -34 -86 -348 -705 -364 -719 -10 -7 -35 -13 -57 -12 -50 2 -129 36 -129
55 0 8 25 65 56 128 l56 113 -31 158 c-41 207 -55 341 -41 368 14 27 79 27
136 0z m1745 -6 c15 -7 29 -21 33 -30 7 -18 -11 -93 -48 -201 l-25 -73 23 -6
c12 -3 44 -4 71 -2 l49 3 32 133 c18 73 41 147 52 165 17 29 22 32 63 29 24
-2 60 -11 79 -20 34 -17 35 -18 33 -72 -3 -102 -169 -704 -200 -728 -23 -17
-134 -12 -157 7 -33 28 -16 126 62 351 3 8 -9 -3 -26 -26 -29 -40 -59 -54
-117 -54 -21 0 -25 -8 -40 -77 -37 -175 -60 -213 -126 -213 -45 0 -107 23
-114 43 -7 16 18 134 39 196 16 43 16 44 -8 66 -21 19 -24 29 -19 62 10 69 39
123 72 134 24 9 33 20 41 52 51 197 64 231 101 268 17 17 28 19 62 14 23 -4
54 -13 68 -21z m972 18 c61 -5 91 -12 97 -22 14 -22 12 -86 -4 -125 -28 -66
-66 -75 -256 -62 l-105 8 39 -21 c37 -21 38 -23 34 -64 l-5 -43 95 -6 c52 -4
101 -12 108 -18 17 -14 18 -60 3 -112 -17 -62 -54 -78 -174 -76 -110 2 -98 9
-118 -72 l-7 -26 107 -6 c126 -6 138 -14 128 -87 -8 -56 -28 -88 -63 -101 -41
-16 -269 -6 -314 14 -41 17 -78 68 -78 107 0 22 18 104 36 163 3 11 0 17 -10
17 -23 0 -30 45 -17 105 12 54 27 73 72 92 19 8 28 22 37 63 16 67 15 70 -7
70 -34 0 -41 21 -27 88 13 66 43 108 80 115 34 7 253 6 349 -1z m684 -18 c12
-8 28 -24 34 -36 17 -30 24 -415 12 -607 -9 -135 -11 -145 -34 -163 -19 -16
-35 -19 -77 -16 -82 7 -88 17 -84 156 2 92 0 113 -9 97 -19 -32 -41 -45 -78
-45 -35 0 -37 -2 -65 -71 -16 -39 -43 -86 -61 -104 -30 -32 -33 -33 -76 -24
-50 11 -92 38 -97 63 -2 10 7 43 19 74 16 39 19 57 11 60 -15 5 -15 64 -2 114
12 42 61 88 93 88 18 0 40 35 128 208 72 141 114 211 130 220 29 15 123 7 156
-14z m1321 17 c99 -8 113 -19 105 -84 -15 -121 -56 -140 -268 -124 -82 6 -97
5 -81 -5 59 -41 61 -43 49 -82 l-11 -36 56 -1 c79 0 153 -14 162 -29 11 -18 0
-90 -19 -125 -27 -47 -54 -56 -164 -53 l-98 3 -10 -40 c-5 -22 -12 -45 -14
-51 -2 -8 29 -13 98 -16 141 -7 141 -8 134 -81 -4 -47 -11 -66 -31 -86 -26
-25 -30 -26 -159 -26 -199 0 -257 30 -257 131 0 25 7 73 15 105 15 56 15 59
-5 79 -17 17 -19 28 -14 63 11 73 29 104 66 116 30 10 36 18 48 64 7 28 15 57
17 63 2 6 -10 14 -26 17 -35 7 -39 26 -20 105 14 57 25 71 64 88 33 15 221 17
363 5z m622 -22 c126 -55 181 -186 134 -323 -17 -49 -98 -147 -143 -171 -57
-31 -57 -27 -3 -116 62 -104 102 -184 102 -203 0 -19 -60 -65 -107 -82 -37
-13 -39 -12 -65 18 -15 17 -60 92 -100 167 l-72 135 -26 -106 c-33 -136 -38
-142 -115 -135 -81 6 -105 19 -105 58 0 36 35 178 96 385 24 83 44 157 44 163
0 9 -13 10 -44 6 -39 -6 -45 -5 -51 14 -9 30 22 129 49 156 60 60 300 80 406
34z m-5727 2 c24 -9 27 -16 27 -53 0 -55 -28 -110 -60 -119 -14 -4 -68 -8
-120 -9 l-95 -1 41 -19 c23 -10 44 -24 47 -32 9 -25 -130 -549 -152 -571 -14
-14 -115 -11 -153 4 -15 6 -29 17 -32 24 -9 26 32 191 97 389 37 110 64 203
61 207 -2 5 -38 8 -79 7 -46 0 -81 4 -90 12 -19 16 -19 71 0 117 29 69 17 66
260 61 123 -3 232 -10 248 -17z m1655 10 c40 -5 76 -12 80 -16 11 -11 6 -90
-7 -124 -17 -40 -53 -51 -170 -51 l-95 0 44 -22 c44 -22 45 -24 43 -68 -2 -41
-109 -450 -134 -512 -6 -14 -18 -28 -27 -30 -28 -8 -141 9 -158 23 -28 23 -4
134 91 428 30 92 55 173 55 179 0 7 -29 11 -81 10 -70 -1 -84 2 -96 18 -22 30
-4 112 35 157 13 15 35 17 181 17 91 -1 199 -5 239 -9z m2830 0 c40 -5 76 -12
80 -15 9 -10 4 -104 -8 -126 -18 -33 -51 -43 -157 -48 l-102 -5 42 -21 c40
-20 42 -23 40 -61 -3 -70 -131 -518 -152 -536 -34 -28 -164 -8 -178 28 -11 28
25 175 93 383 35 109 64 203 64 210 0 8 -16 11 -52 9 -132 -6 -149 6 -129 96
21 93 26 95 219 95 92 -1 200 -5 240 -9z m-4448 -661 c14 -14 20 -33 20 -64 0
-60 -37 -106 -85 -106 -65 0 -89 54 -56 123 31 65 83 85 121 47z"/>
<path d="M4485 4320 c-49 -10 -122 -30 -162 -43 -702 -244 -1032 -1046 -703
-1712 129 -261 312 -443 575 -571 455 -220 998 -137 1373 212 183 169 315 404
368 654 26 119 26 373 1 490 -101 472 -442 832 -906 957 -83 22 -121 26 -276
29 -148 3 -196 0 -270 -16z m15 -170 c-10 -19 -8 -20 39 -20 40 0 52 4 61 20
10 19 21 20 276 20 262 0 265 0 254 -20 -10 -19 -8 -20 40 -20 39 0 53 4 62
20 7 11 18 20 25 20 8 0 -34 -95 -98 -221 -60 -122 -107 -224 -104 -228 4 -3
62 -6 129 -6 90 0 127 4 139 14 10 7 17 9 17 4 0 -5 28 -7 63 -5 54 3 72 0
115 -22 l52 -26 0 -114 0 -114 -84 -63 -85 -62 45 -88 c24 -49 44 -98 44 -110
0 -31 -129 -432 -143 -445 -7 -6 -81 -33 -166 -60 -172 -54 -171 -53 -186
-159 -8 -63 -13 -72 -45 -76 -20 -3 -42 -37 -140 -219 -154 -287 -140 -270
-137 -175 2 79 2 80 30 83 23 3 57 42 57 67 0 3 -20 5 -45 5 l-45 0 0 120 0
120 -99 0 -99 0 -7 90 -7 89 -52 19 c-28 11 -105 38 -171 61 l-120 42 -77 221
-77 221 45 88 c24 49 44 91 44 93 0 3 -38 32 -84 65 l-84 61 4 78 c10 157 8
154 67 185 51 28 53 28 142 18 50 -6 99 -11 110 -11 16 0 44 47 140 230 103
197 123 230 143 230 20 0 21 -3 12 -20z"/>
<path d="M5357 3673 c-45 -4 -48 -6 -71 -51 l-24 -48 52 -92 c29 -51 56 -95
59 -98 3 -4 35 15 71 42 l66 48 0 88 c0 87 0 88 -30 103 -16 8 -39 14 -52 13
-13 -1 -44 -3 -71 -5z"/>
<path d="M3979 3656 c-28 -16 -39 -60 -39 -151 0 -40 3 -43 65 -88 36 -26 70
-45 76 -42 5 4 21 29 34 56 24 46 24 49 7 49 -17 0 -13 11 25 86 25 47 43 87
41 89 -1 2 -43 6 -93 9 -70 5 -96 3 -116 -8z"/>
<path d="M4970 3570 c-28 -56 -45 -98 -37 -93 129 78 198 129 203 150 4 13 5
25 3 27 -2 2 -30 7 -61 10 l-57 7 -51 -101z"/>
<path d="M5187 3424 c-24 -49 -47 -107 -51 -129 -4 -22 -9 -53 -12 -69 -6 -28
-3 -26 100 44 l106 72 -36 67 c-65 116 -57 115 -107 15z"/>
<path d="M4164 3406 c-21 -41 -36 -77 -34 -79 3 -2 47 -32 97 -66 91 -60 93
-61 99 -37 3 13 -2 64 -10 112 -29 159 -22 144 -71 144 l-43 0 -38 -74z"/>
<path d="M5228 3208 l-117 -81 22 -39 c12 -21 25 -38 30 -38 4 0 46 25 93 55
l86 56 -56 -105 c-31 -57 -56 -110 -56 -117 0 -7 21 -48 47 -92 l47 -81 58
182 58 182 -40 80 c-22 44 -44 80 -48 79 -4 0 -60 -37 -124 -81z"/>
<path d="M4057 3205 l-37 -76 49 -142 c28 -78 55 -157 62 -175 l12 -34 28 49
c35 59 35 63 4 63 -25 0 -24 3 44 133 l70 132 -92 63 c-51 34 -94 62 -97 62
-3 0 -22 -34 -43 -75z"/>
<path d="M4263 2878 c-18 -23 -85 -149 -82 -152 13 -11 251 -88 255 -83 4 3
-4 60 -16 126 l-22 121 -63 0 c-38 0 -66 -5 -72 -12z"/>
<path d="M4466 2818 c8 -40 17 -92 20 -114 10 -69 13 -70 103 -25 l81 41 0 85
0 85 -109 0 -109 0 14 -72z"/>
<path d="M5132 2768 c-33 -62 -59 -114 -57 -116 3 -4 189 55 207 65 5 2 -71
143 -87 161 -2 2 -30 -48 -63 -110z"/>
<path d="M4587 2617 l-78 -42 6 -60 c4 -33 9 -63 12 -67 2 -5 35 -8 74 -8 l69
0 0 110 c0 61 -1 110 -2 110 -2 0 -38 -19 -81 -43z"/>
<path d="M7515 1153 c-48 -7 -51 -20 -6 -28 23 -4 51 -15 63 -25 l23 -18 -18
-68 c-9 -37 -15 -69 -12 -72 13 -13 101 36 122 67 68 100 -12 166 -172 144z"/>
</g>
</svg>
